<?xml version="1.0" encoding="utf-8"?>
<!-- Generator: Adobe Illustrator 23.0.1, SVG Export Plug-In . SVG Version: 6.00 Build 0)  -->
<svg version="1.1" id="Capa_1" xmlns="http://www.w3.org/2000/svg" xmlns:xlink="http://www.w3.org/1999/xlink" x="0px" y="0px"
	 viewBox="0 0 283.46 283.46" style="enable-background:new 0 0 283.46 283.46;" xml:space="preserve">
<style type="text/css">
	.st0{fill:#5DB28C;}
	.st1{fill:#323838;}
	.st2{fill:none;stroke:#32373B;stroke-width:2.1587;stroke-linecap:round;stroke-linejoin:bevel;stroke-miterlimit:10;}
</style>
<g>
	<path class="st0" d="M52.33,182.69c-9.6,7.86-19.99,13.31-32.8,12.79c-3.67-0.15-2.85,1.86-1.92,4.01
		c6.73,15.63,17.4,28.13,30.66,38.55c8.65,6.8,18.08,12.24,28.42,16.03c1.85,0.68,3.52,1.55,4.95,2.88
		c1.81,0.93,1.74,2.61,1.74,4.29c-0.01,4.01,0.15,8.03-0.05,12.03c-0.14,2.82,1.01,4.1,3.7,4.31c6.89,0.55,13.8,0.58,20.71,0.52
		c2.11-0.02,3.19-1.18,3.89-3.07c1.18-3.16,0.56-6.24-0.02-9.39c-0.71-3.81-0.13-4.51,3.71-4.24c2.38,0.17,4.67-0.47,7.02-0.32
		c3.46-0.28,6.89,0.53,10.34,0.4c2.35-0.09,4.19,9.89,4.26,13.2c0.07,3.21,1.44,4.8,4.84,4.7c6.49-0.19,12.96-0.58,19.4-1.31
		c3.05-0.35,4.48-2.36,4.21-5.41c-0.22-2.49-0.84-4.89-1.66-7.24c-1.56-4.49-1.24-5.1,3.56-6.01c4.59-0.87,9.18-1.45,13.67-3.08
		c6.08-2.2,11.56-3.82,16.25-8.28c0.78-0.74,1-1.46,2.78-2.88c5.23-4.93,6.79-6.54,9.07-10.75c1.82-3.8,2.2-5.59,2.79-8.6
		c2.03-10.3,1.23-20.63,0.4-30.92c-2.25-28.01-5.59-55.95-4.7-84.13c0.26-8.14,1.37-16.2,3.09-24.16c0.32-1.46,0.65-2.99,1.94-4.02
		c0.56-0.56,1.12-1.13,1.68-1.69c3.11-2.54,6.88-1.22,10.33-1.64c7.28-0.89,14.56-1.79,21.35-4.67
		c17.08-7.24,20.34-19.99,18.04-38.52c-1.3-10.46-13.13-20.13-13.19-20.06c-22.76-18.66-56.22-9.42-63.09,15.88
		c-1.01,2.63-0.88,4.52-1.4,6.74c-3.24,13.87-4.75,28.02-7.27,42.01c-4.12,22.84-8.4,45.65-13.65,68.25
		c-3.41,14.64-6.95,29.28-12.6,43.29c-0.78,1.93-1.75,3.76-2.24,4.72c-0.76,1.34-1.15,0.55-0.74,0.92c0.07,0.07,0.18-0.01,0.31-0.25
		c5.18-9.87,7.95-20.59,10.85-31.25c0.69-2.52,1.42-5.05,2.07-7.58c0.88-3.43-0.44-4.56-3.61-5.44
		c-18.64-5.19-37.17-4.37-55.64,0.67c-11.12,3.03-21.79,7.12-31.23,13.95C72.18,168.18,58.5,177.63,52.33,182.69z"/>
	<path class="st1" d="M210,46.88c1.75-0.18,2.67-1.14,2.66-2.77c-0.01-1.83-1.03-2.85-2.91-2.77c-1.66,0.07-2.66,1-2.62,2.67
		C207.18,45.82,208.3,46.73,210,46.88z"/>
	<g>
		<path class="st2" d="M186.5,239.03c-14.16,7.01-25.4,7.64-25.92,8.1c0,3.79,1.43,4.81,1.9,9.55c0.37,3.07,6.5,2.24,9.62,1.84
			c5.17-0.67,10.35-1.24,15.52-1.9c3.6-0.46,4.97-2.54,4.14-6.04c-0.36-1.52-0.73-3.04-1.28-4.5c-0.96-2.56-1.52-4.04-1.49-5.21
			C189,239.97,187.3,238.63,186.5,239.03z"/>
		<path class="st2" d="M110.05,248.94v2.3c0.75,2.91,1.39,5.79,1.28,8.83c-0.11,2.78,3.69,0.77,7.51-0.92
			c2.1-0.93,1.27-7.84,0.75-10.2C119.58,248.94,112.91,249.52,110.05,248.94z"/>
		<path class="st2" d="M53.57,174.39c-9.06,7.42-18.87,12.57-30.96,12.08c-3.46-0.14-2.69,1.76-1.82,3.79
			c6.36,14.75,16.42,26.55,28.94,36.39c8.16,6.42,17.06,11.55,26.82,15.13c1.74,0.64,3.32,1.47,4.68,2.72
			c1.71,0.88,1.65,2.47,1.64,4.05c-0.01,3.79,0.14,7.58-0.05,11.35c-0.13,2.67,0.96,3.87,3.49,4.07c6.51,0.51,13.02,0.55,19.54,0.49
			c1.99-0.02,3.01-1.11,3.67-2.89c1.11-2.99,0.53-5.89-0.02-8.86c-0.67-3.6-0.13-4.26,3.5-4c2.24,0.16,4.41-0.45,6.63-0.3
			c3.27-0.26,6.5,0.5,9.76,0.37c2.22-0.08,3.96,9.34,4.02,12.46c0.06,3.03,1.36,4.53,4.57,4.44c6.12-0.18,12.23-0.55,18.31-1.24
			c2.88-0.33,4.23-2.23,3.97-5.1c-0.21-2.35-0.79-4.61-1.56-6.83c-1.48-4.24-1.17-4.81,3.36-5.67c4.33-0.82,8.67-1.37,12.91-2.9
			c5.74-2.08,10.91-3.61,15.34-7.81c0.73-0.7,0.95-1.38,2.62-2.72c4.94-4.65,6.41-6.17,8.56-10.14c1.72-3.58,2.07-5.28,2.64-8.12
			c1.92-9.72,1.16-19.48,0.38-29.18c-2.12-26.44-5.28-52.81-4.44-79.41c0.24-7.69,1.29-15.29,2.92-22.8c0.3-1.38,0.62-2.83,1.84-3.8
			c0.53-0.53,1.06-1.06,1.59-1.59c2.94-2.4,6.5-1.15,9.75-1.55c6.88-0.84,13.74-1.69,20.15-4.4c16.13-6.83,19.2-18.87,17.02-36.36
			c-1.23-9.87-12.4-19-12.45-18.94c-21.48-17.62-53.07-8.89-59.55,14.99c-0.96,2.48-0.83,4.26-1.32,6.37
			c-3.06,13.09-4.48,26.45-6.86,39.65c-3.88,21.56-7.93,43.09-12.89,64.42c-3.21,13.82-6.56,27.64-11.89,40.86
			c-0.74,1.82-1.65,3.55-2.12,4.46c-0.72,1.26-1.09,0.52-0.7,0.86c0.07,0.06,0.17-0.01,0.29-0.24c4.89-9.32,7.5-19.44,10.24-29.5
			c0.65-2.38,1.34-4.76,1.96-7.16c0.83-3.23-0.42-4.3-3.41-5.14c-17.6-4.9-35.08-4.13-52.52,0.63c-10.5,2.86-20.57,6.72-29.48,13.17
			C72.31,160.7,59.4,169.62,53.57,174.39z"/>
	</g>
</g>
</svg>
